<svg width="191" height="186" viewBox="0 0 191 186" fill="none" xmlns="http://www.w3.org/2000/svg">
<path d="M63 164.182C63 162.977 63.9768 162 65.1818 162H134.818C136.023 162 137 162.977 137 164.182V164.182C137 176.232 127.232 186 115.182 186H84.8182C72.7683 186 63 176.232 63 164.182V164.182Z" fill="url(#paint0_linear_608_529)"/>
<path d="M21.8182 55C23.0232 55 24 55.9768 24 57.1818L24 126.818C24 128.023 23.0232 129 21.8182 129V129C9.76833 129 -2.80766e-06 119.232 -2.28094e-06 107.182L-9.53703e-07 76.8182C-4.26988e-07 64.7683 9.76833 55 21.8182 55V55Z" fill="url(#paint1_linear_608_529)"/>
<path d="M169.182 129C167.977 129 167 128.023 167 126.818L167 57.1818C167 55.9768 167.977 55 169.182 55V55C181.232 55 191 64.7683 191 76.8182L191 107.182C191 119.232 181.232 129 169.182 129V129Z" fill="url(#paint2_linear_608_529)"/>
<path d="M127 21.8182C127 23.0232 126.023 24 124.818 24L55.1818 24C53.9768 24 53 23.0232 53 21.8182V21.8182C53 9.76834 62.7683 5.61531e-06 74.8182 4.56188e-06L105.182 1.90741e-06C117.232 8.53975e-07 127 9.76833 127 21.8182V21.8182Z" fill="url(#paint3_linear_608_529)"/>
<path d="M162 131.974V39.4725C159.5 20.4736 141.667 17.5509 137.5 18.0506C137.5 21.9736 139 28.4736 130.5 30.0437H50C38.9543 30.0437 30 38.998 30 50.0437V138.974C31.5 160.974 49.3333 165.14 56 165.474C54 156.474 60.1667 152.64 63 151.974H142C153.046 151.974 162 143.019 162 131.974Z" fill="url(#paint4_linear_608_529)"/>
<rect x="47" y="53" width="97" height="79" rx="15" fill="white"/>
<rect x="68" y="69" width="18" height="18" rx="9" fill="url(#paint5_linear_608_529)" fill-opacity="0.8"/>
<rect x="105" y="69" width="18" height="18" rx="9" fill="url(#paint6_linear_608_529)" fill-opacity="0.7"/>
<rect x="105" y="97" width="18" height="18" rx="9" fill="url(#paint7_linear_608_529)" fill-opacity="0.8"/>
<rect x="68" y="97" width="18" height="18" rx="9" fill="url(#paint8_linear_608_529)" fill-opacity="0.6"/>
<defs>
<linearGradient id="paint0_linear_608_529" x1="69.5" y1="186" x2="146" y2="142" gradientUnits="userSpaceOnUse">
<stop stop-color="#6754E9"/>
<stop offset="1" stop-color="#DE80CB"/>
</linearGradient>
<linearGradient id="paint1_linear_608_529" x1="42.5" y1="4.5" x2="12" y2="129" gradientUnits="userSpaceOnUse">
<stop stop-color="#DE80CB"/>
<stop offset="1" stop-color="#6754E9"/>
</linearGradient>
<linearGradient id="paint2_linear_608_529" x1="167" y1="121.5" x2="200" y2="-25" gradientUnits="userSpaceOnUse">
<stop stop-color="#DE80CB"/>
<stop offset="0.5" stop-color="#D46323"/>
<stop offset="1" stop-color="#D99E00"/>
</linearGradient>
<linearGradient id="paint3_linear_608_529" x1="32" y1="12" x2="193" y2="12" gradientUnits="userSpaceOnUse">
<stop stop-color="#DE80CB"/>
<stop offset="0.5" stop-color="#D46323"/>
<stop offset="1" stop-color="#D99E00"/>
</linearGradient>
<linearGradient id="paint4_linear_608_529" x1="30" y1="165" x2="162" y2="18" gradientUnits="userSpaceOnUse">
<stop stop-color="#6754E9"/>
<stop offset="0.445" stop-color="#F277D9"/>
<stop offset="0.74" stop-color="#E41D1D" stop-opacity="0.65"/>
<stop offset="0.96" stop-color="#D99E00"/>
</linearGradient>
<linearGradient id="paint5_linear_608_529" x1="68" y1="78" x2="95.5" y2="78" gradientUnits="userSpaceOnUse">
<stop stop-color="#DE80CB"/>
<stop offset="1" stop-color="#D46323"/>
</linearGradient>
<linearGradient id="paint6_linear_608_529" x1="123" y1="62" x2="105" y2="87" gradientUnits="userSpaceOnUse">
<stop stop-color="#D46323"/>
<stop offset="1" stop-color="#DE80CB"/>
</linearGradient>
<linearGradient id="paint7_linear_608_529" x1="114" y1="115" x2="114" y2="85.5" gradientUnits="userSpaceOnUse">
<stop stop-color="#DE80CB"/>
<stop offset="1" stop-color="#D46323"/>
</linearGradient>
<linearGradient id="paint8_linear_608_529" x1="86" y1="92" x2="68" y2="126.5" gradientUnits="userSpaceOnUse">
<stop stop-color="#DE80CB"/>
<stop offset="1" stop-color="#5A44F2"/>
</linearGradient>
</defs>
</svg>
