<svg width="597" height="186" viewBox="0 0 597 186" fill="none" xmlns="http://www.w3.org/2000/svg">
<path d="M231.38 102L218.12 83.46V102H206.36V59.7H218.12V77.94L231.26 59.7H244.82L229.28 80.22L245.6 102H231.38ZM270.175 102.42C266.215 102.42 262.575 101.5 259.255 99.66C255.935 97.78 253.295 95.2 251.335 91.92C249.415 88.6 248.455 84.86 248.455 80.7C248.455 76.54 249.415 72.82 251.335 69.54C253.295 66.22 255.935 63.64 259.255 61.8C262.575 59.96 266.215 59.04 270.175 59.04C274.175 59.04 277.815 59.96 281.095 61.8C284.415 63.64 287.035 66.22 288.955 69.54C290.875 72.82 291.835 76.54 291.835 80.7C291.835 84.86 290.875 88.6 288.955 91.92C287.035 95.2 284.415 97.78 281.095 99.66C277.775 101.5 274.135 102.42 270.175 102.42ZM270.175 91.5C273.175 91.5 275.535 90.52 277.255 88.56C279.015 86.6 279.895 83.98 279.895 80.7C279.895 77.34 279.015 74.7 277.255 72.78C275.535 70.82 273.175 69.84 270.175 69.84C267.135 69.84 264.755 70.82 263.035 72.78C261.315 74.7 260.455 77.34 260.455 80.7C260.455 84.02 261.315 86.66 263.035 88.62C264.755 90.54 267.135 91.5 270.175 91.5ZM308.882 93H322.022V102H297.122V59.7H308.882V93ZM346.874 102.42C342.914 102.42 339.274 101.5 335.954 99.66C332.634 97.78 329.994 95.2 328.034 91.92C326.114 88.6 325.154 84.86 325.154 80.7C325.154 76.54 326.114 72.82 328.034 69.54C329.994 66.22 332.634 63.64 335.954 61.8C339.274 59.96 342.914 59.04 346.874 59.04C350.874 59.04 354.514 59.96 357.794 61.8C361.114 63.64 363.734 66.22 365.654 69.54C367.574 72.82 368.534 76.54 368.534 80.7C368.534 84.86 367.574 88.6 365.654 91.92C363.734 95.2 361.114 97.78 357.794 99.66C354.474 101.5 350.834 102.42 346.874 102.42ZM346.874 91.5C349.874 91.5 352.234 90.52 353.954 88.56C355.714 86.6 356.594 83.98 356.594 80.7C356.594 77.34 355.714 74.7 353.954 72.78C352.234 70.82 349.874 69.84 346.874 69.84C343.834 69.84 341.454 70.82 339.734 72.78C338.014 74.7 337.154 77.34 337.154 80.7C337.154 84.02 338.014 86.66 339.734 88.62C341.454 90.54 343.834 91.5 346.874 91.5ZM395.241 102L386.841 86.4H385.581V102H373.821V59.7H392.361C395.761 59.7 398.641 60.3 401.001 61.5C403.361 62.66 405.141 64.28 406.341 66.36C407.541 68.4 408.141 70.7 408.141 73.26C408.141 76.14 407.341 78.68 405.741 80.88C404.181 83.04 401.881 84.58 398.841 85.5L408.381 102H395.241ZM385.581 78.36H391.401C393.001 78.36 394.201 77.98 395.001 77.22C395.801 76.46 396.201 75.36 396.201 73.92C396.201 72.56 395.781 71.5 394.941 70.74C394.141 69.94 392.961 69.54 391.401 69.54H385.581V78.36ZM433.769 102.42C429.809 102.42 426.169 101.5 422.849 99.66C419.529 97.78 416.889 95.2 414.929 91.92C413.009 88.6 412.049 84.86 412.049 80.7C412.049 76.54 413.009 72.82 414.929 69.54C416.889 66.22 419.529 63.64 422.849 61.8C426.169 59.96 429.809 59.04 433.769 59.04C437.769 59.04 441.409 59.96 444.689 61.8C448.009 63.64 450.629 66.22 452.549 69.54C454.469 72.82 455.429 76.54 455.429 80.7C455.429 84.86 454.469 88.6 452.549 91.92C450.629 95.2 448.009 97.78 444.689 99.66C441.369 101.5 437.729 102.42 433.769 102.42ZM433.769 91.5C436.769 91.5 439.129 90.52 440.849 88.56C442.609 86.6 443.489 83.98 443.489 80.7C443.489 77.34 442.609 74.7 440.849 72.78C439.129 70.82 436.769 69.84 433.769 69.84C430.729 69.84 428.349 70.82 426.629 72.78C424.909 74.7 424.049 77.34 424.049 80.7C424.049 84.02 424.909 86.66 426.629 88.62C428.349 90.54 430.729 91.5 433.769 91.5ZM520.295 59.7L509.915 102H495.455L489.635 76.08L483.695 102H469.235L458.975 59.7H471.695L476.615 88.62L483.275 59.7H496.175L502.655 88.38L507.575 59.7H520.295ZM537.046 69.12V76.02H550.546V84.96H537.046V92.58H552.346V102H525.286V59.7H552.346V69.12H537.046ZM596.617 59.7L581.737 88.56V102H569.917V88.56L555.037 59.7H568.477L575.917 76.02L583.357 59.7H596.617Z" fill="black"/>
<path d="M340.71 115.94V137H335.58V124.37L330.87 137H326.73L321.99 124.34V137H316.86V115.94H322.92L328.83 130.52L334.68 115.94H340.71ZM368.129 120.05V124.31H374.999V128.27H368.129V132.89H375.899V137H362.999V115.94H375.899V120.05H368.129ZM405.72 115.94C407.94 115.94 409.88 116.38 411.54 117.26C413.2 118.14 414.48 119.38 415.38 120.98C416.3 122.56 416.76 124.39 416.76 126.47C416.76 128.53 416.3 130.36 415.38 131.96C414.48 133.56 413.19 134.8 411.51 135.68C409.85 136.56 407.92 137 405.72 137H397.83V115.94H405.72ZM405.39 132.56C407.33 132.56 408.84 132.03 409.92 130.97C411 129.91 411.54 128.41 411.54 126.47C411.54 124.53 411 123.02 409.92 121.94C408.84 120.86 407.33 120.32 405.39 120.32H402.96V132.56H405.39ZM443.356 115.94V137H438.226V115.94H443.356ZM478.784 133.28H470.924L469.664 137H464.294L471.914 115.94H477.854L485.474 137H480.044L478.784 133.28ZM477.464 129.32L474.854 121.61L472.274 129.32H477.464Z" fill="black"/>
<path d="M63 164.182C63 162.977 63.9768 162 65.1818 162H134.818C136.023 162 137 162.977 137 164.182V164.182C137 176.232 127.232 186 115.182 186H84.8182C72.7683 186 63 176.232 63 164.182V164.182Z" fill="url(#paint0_linear_608_562)"/>
<path d="M21.8182 55C23.0232 55 24 55.9768 24 57.1818L24 126.818C24 128.023 23.0232 129 21.8182 129V129C9.76833 129 -2.80766e-06 119.232 -2.28094e-06 107.182L-9.53703e-07 76.8182C-4.26988e-07 64.7683 9.76833 55 21.8182 55V55Z" fill="url(#paint1_linear_608_562)"/>
<path d="M169.182 129C167.977 129 167 128.023 167 126.818L167 57.1818C167 55.9768 167.977 55 169.182 55V55C181.232 55 191 64.7683 191 76.8182L191 107.182C191 119.232 181.232 129 169.182 129V129Z" fill="url(#paint2_linear_608_562)"/>
<path d="M127 21.8182C127 23.0232 126.023 24 124.818 24L55.1818 24C53.9768 24 53 23.0232 53 21.8182V21.8182C53 9.76834 62.7683 5.61531e-06 74.8182 4.56188e-06L105.182 1.90741e-06C117.232 8.53975e-07 127 9.76833 127 21.8182V21.8182Z" fill="url(#paint3_linear_608_562)"/>
<path d="M162 131.974V39.4725C159.5 20.4736 141.667 17.5509 137.5 18.0506C137.5 21.9736 139 28.4736 130.5 30.0437H50C38.9543 30.0437 30 38.998 30 50.0437V138.974C31.5 160.974 49.3333 165.14 56 165.474C54 156.474 60.1667 152.64 63 151.974H142C153.046 151.974 162 143.019 162 131.974Z" fill="url(#paint4_linear_608_562)"/>
<rect x="47" y="53" width="97" height="79" rx="15" fill="white"/>
<rect x="68" y="69" width="18" height="18" rx="9" fill="url(#paint5_linear_608_562)" fill-opacity="0.8"/>
<rect x="105" y="69" width="18" height="18" rx="9" fill="url(#paint6_linear_608_562)" fill-opacity="0.7"/>
<rect x="105" y="97" width="18" height="18" rx="9" fill="url(#paint7_linear_608_562)" fill-opacity="0.8"/>
<rect x="68" y="97" width="18" height="18" rx="9" fill="url(#paint8_linear_608_562)" fill-opacity="0.6"/>
<defs>
<linearGradient id="paint0_linear_608_562" x1="69.5" y1="186" x2="146" y2="142" gradientUnits="userSpaceOnUse">
<stop stop-color="#6754E9"/>
<stop offset="1" stop-color="#DE80CB"/>
</linearGradient>
<linearGradient id="paint1_linear_608_562" x1="42.5" y1="4.5" x2="12" y2="129" gradientUnits="userSpaceOnUse">
<stop stop-color="#DE80CB"/>
<stop offset="1" stop-color="#6754E9"/>
</linearGradient>
<linearGradient id="paint2_linear_608_562" x1="167" y1="121.5" x2="200" y2="-25" gradientUnits="userSpaceOnUse">
<stop stop-color="#DE80CB"/>
<stop offset="0.5" stop-color="#D46323"/>
<stop offset="1" stop-color="#D99E00"/>
</linearGradient>
<linearGradient id="paint3_linear_608_562" x1="32" y1="12" x2="193" y2="12" gradientUnits="userSpaceOnUse">
<stop stop-color="#DE80CB"/>
<stop offset="0.5" stop-color="#D46323"/>
<stop offset="1" stop-color="#D99E00"/>
</linearGradient>
<linearGradient id="paint4_linear_608_562" x1="30" y1="165" x2="162" y2="18" gradientUnits="userSpaceOnUse">
<stop stop-color="#6754E9"/>
<stop offset="0.445" stop-color="#F277D9"/>
<stop offset="0.74" stop-color="#E41D1D" stop-opacity="0.65"/>
<stop offset="0.96" stop-color="#D99E00"/>
</linearGradient>
<linearGradient id="paint5_linear_608_562" x1="68" y1="78" x2="95.5" y2="78" gradientUnits="userSpaceOnUse">
<stop stop-color="#DE80CB"/>
<stop offset="1" stop-color="#D46323"/>
</linearGradient>
<linearGradient id="paint6_linear_608_562" x1="123" y1="62" x2="105" y2="87" gradientUnits="userSpaceOnUse">
<stop stop-color="#D46323"/>
<stop offset="1" stop-color="#DE80CB"/>
</linearGradient>
<linearGradient id="paint7_linear_608_562" x1="114" y1="115" x2="114" y2="85.5" gradientUnits="userSpaceOnUse">
<stop stop-color="#DE80CB"/>
<stop offset="1" stop-color="#D46323"/>
</linearGradient>
<linearGradient id="paint8_linear_608_562" x1="86" y1="92" x2="68" y2="126.5" gradientUnits="userSpaceOnUse">
<stop stop-color="#DE80CB"/>
<stop offset="1" stop-color="#5A44F2"/>
</linearGradient>
</defs>
</svg>
