<svg width="394" height="113" viewBox="0 0 394 113" fill="none" xmlns="http://www.w3.org/2000/svg">
<path d="M28.38 66L15.12 47.46V66H3.36V23.7H15.12V41.94L28.26 23.7H41.82L26.28 44.22L42.6 66H28.38ZM67.1752 66.42C63.2152 66.42 59.5752 65.5 56.2552 63.66C52.9352 61.78 50.2952 59.2 48.3352 55.92C46.4152 52.6 45.4552 48.86 45.4552 44.7C45.4552 40.54 46.4152 36.82 48.3352 33.54C50.2952 30.22 52.9352 27.64 56.2552 25.8C59.5752 23.96 63.2152 23.04 67.1752 23.04C71.1752 23.04 74.8152 23.96 78.0952 25.8C81.4152 27.64 84.0352 30.22 85.9552 33.54C87.8752 36.82 88.8352 40.54 88.8352 44.7C88.8352 48.86 87.8752 52.6 85.9552 55.92C84.0352 59.2 81.4152 61.78 78.0952 63.66C74.7752 65.5 71.1352 66.42 67.1752 66.42ZM67.1752 55.5C70.1752 55.5 72.5352 54.52 74.2552 52.56C76.0152 50.6 76.8952 47.98 76.8952 44.7C76.8952 41.34 76.0152 38.7 74.2552 36.78C72.5352 34.82 70.1752 33.84 67.1752 33.84C64.1352 33.84 61.7552 34.82 60.0352 36.78C58.3152 38.7 57.4552 41.34 57.4552 44.7C57.4552 48.02 58.3152 50.66 60.0352 52.62C61.7552 54.54 64.1352 55.5 67.1752 55.5ZM105.882 57H119.022V66H94.1217V23.7H105.882V57ZM143.874 66.42C139.914 66.42 136.274 65.5 132.954 63.66C129.634 61.78 126.994 59.2 125.034 55.92C123.114 52.6 122.154 48.86 122.154 44.7C122.154 40.54 123.114 36.82 125.034 33.54C126.994 30.22 129.634 27.64 132.954 25.8C136.274 23.96 139.914 23.04 143.874 23.04C147.874 23.04 151.514 23.96 154.794 25.8C158.114 27.64 160.734 30.22 162.654 33.54C164.574 36.82 165.534 40.54 165.534 44.7C165.534 48.86 164.574 52.6 162.654 55.92C160.734 59.2 158.114 61.78 154.794 63.66C151.474 65.5 147.834 66.42 143.874 66.42ZM143.874 55.5C146.874 55.5 149.234 54.52 150.954 52.56C152.714 50.6 153.594 47.98 153.594 44.7C153.594 41.34 152.714 38.7 150.954 36.78C149.234 34.82 146.874 33.84 143.874 33.84C140.834 33.84 138.454 34.82 136.734 36.78C135.014 38.7 134.154 41.34 134.154 44.7C134.154 48.02 135.014 50.66 136.734 52.62C138.454 54.54 140.834 55.5 143.874 55.5ZM192.241 66L183.841 50.4H182.581V66H170.821V23.7H189.361C192.761 23.7 195.641 24.3 198.001 25.5C200.361 26.66 202.141 28.28 203.341 30.36C204.541 32.4 205.141 34.7 205.141 37.26C205.141 40.14 204.341 42.68 202.741 44.88C201.181 47.04 198.881 48.58 195.841 49.5L205.381 66H192.241ZM182.581 42.36H188.401C190.001 42.36 191.201 41.98 192.001 41.22C192.801 40.46 193.201 39.36 193.201 37.92C193.201 36.56 192.781 35.5 191.941 34.74C191.141 33.94 189.961 33.54 188.401 33.54H182.581V42.36ZM230.769 66.42C226.809 66.42 223.169 65.5 219.849 63.66C216.529 61.78 213.889 59.2 211.929 55.92C210.009 52.6 209.049 48.86 209.049 44.7C209.049 40.54 210.009 36.82 211.929 33.54C213.889 30.22 216.529 27.64 219.849 25.8C223.169 23.96 226.809 23.04 230.769 23.04C234.769 23.04 238.409 23.96 241.689 25.8C245.009 27.64 247.629 30.22 249.549 33.54C251.469 36.82 252.429 40.54 252.429 44.7C252.429 48.86 251.469 52.6 249.549 55.92C247.629 59.2 245.009 61.78 241.689 63.66C238.369 65.5 234.729 66.42 230.769 66.42ZM230.769 55.5C233.769 55.5 236.129 54.52 237.849 52.56C239.609 50.6 240.489 47.98 240.489 44.7C240.489 41.34 239.609 38.7 237.849 36.78C236.129 34.82 233.769 33.84 230.769 33.84C227.729 33.84 225.349 34.82 223.629 36.78C221.909 38.7 221.049 41.34 221.049 44.7C221.049 48.02 221.909 50.66 223.629 52.62C225.349 54.54 227.729 55.5 230.769 55.5ZM317.295 23.7L306.915 66H292.455L286.635 40.08L280.695 66H266.235L255.975 23.7H268.695L273.615 52.62L280.275 23.7H293.175L299.655 52.38L304.575 23.7H317.295ZM334.046 33.12V40.02H347.546V48.96H334.046V56.58H349.346V66H322.286V23.7H349.346V33.12H334.046ZM393.617 23.7L378.737 52.56V66H366.917V52.56L352.037 23.7H365.477L372.917 40.02L380.357 23.7H393.617Z" fill="white"/>
<path d="M138.52 80.24V101H135.79V85.52L128.89 101H126.97L120.04 85.49V101H117.31V80.24H120.25L127.93 97.4L135.61 80.24H138.52ZM164.48 82.31V89.3H172.1V91.55H164.48V98.75H173V101H161.75V80.06H173V82.31H164.48ZM202.241 80.09C204.521 80.09 206.491 80.52 208.151 81.38C209.831 82.22 211.111 83.43 211.991 85.01C212.891 86.59 213.341 88.45 213.341 90.59C213.341 92.73 212.891 94.59 211.991 96.17C211.111 97.73 209.831 98.93 208.151 99.77C206.491 100.59 204.521 101 202.241 101H195.731V80.09H202.241ZM202.241 98.75C204.941 98.75 207.001 98.04 208.421 96.62C209.841 95.18 210.551 93.17 210.551 90.59C210.551 87.99 209.831 85.96 208.391 84.5C206.971 83.04 204.921 82.31 202.241 82.31H198.461V98.75H202.241ZM238.272 80.09V101H235.542V80.09H238.272ZM273.884 96.35H264.764L263.084 101H260.204L267.764 80.21H270.914L278.444 101H275.564L273.884 96.35ZM273.104 94.13L269.324 83.57L265.544 94.13H273.104Z" fill="white"/>
</svg>
